<?xml version="1.0" encoding="iso-8859-1"?>
<!DOCTYPE svg PUBLIC "-//W3C//DTD SVG 1.0//EN" "http://www.w3.org/TR/2001/REC-SVG-20010904/DTD/svg10.dtd">
<!-- Creator: CorelDRAW -->
<svg xmlns="http://www.w3.org/2000/svg" xmlns:odm="http://product.corel.com/CGS/11/cddns/" xml:space="preserve" width="2960px" height="2326px" style="shape-rendering:geometricPrecision; text-rendering:geometricPrecision; image-rendering:optimizeQuality; fill-rule:evenodd"
     viewBox="0 0 2960 2326">
 <defs>
  <style type="text/css">
   <![CDATA[
    .str1 {stroke:#000000;stroke-width:5;stroke-linecap:round;stroke-linejoin:round}
    .str0 {stroke:#000000;stroke-width:8;stroke-linecap:round;stroke-linejoin:round}
    .fil0 {fill:none}
   ]]>
  </style>
 </defs>
 <g id="Layer 1">
  <path class="fil0 str0" d="M2262 926l104 0m325 -2l104 0m-660 -262l296 116m251 98l120 48 -109 47m-346 148l-101 43m-228 -657l-5 -480c-440,541 -381,1209 -98,1654m66 95c14,19 28,37 43,54l0 -98m-571 -1168l214 0 4 735 -214 0 -4 -735z"/>
  <path class="fil0 str1" d="M802 1182l1092 -5m354 -2l99 0m339 -2l132 0"/>
  <path class="fil0 str1" d="M2818 1164l0 18"/>
  <path class="fil0 str0" d="M567 163c-3,0 -5,-2 -5,-5 0,-2 2,-5 5,-5 3,0 5,3 5,5 0,3 -2,5 -5,5zm390 176c-56,0 -102,-48 -102,-106 0,-58 46,-106 102,-106 57,0 103,48 103,106 0,58 -46,106 -103,106zm2 -130c-3,0 -5,-3 -5,-5 0,-3 2,-5 5,-5 2,0 4,2 4,5 0,2 -2,5 -4,5zm-1 -5l1 54m-2 -155l1 54m-1 -51c-3,0 -5,-2 -5,-5 0,-2 2,-4 5,-4 2,0 4,2 4,4 0,3 -2,5 -4,5zm-389 103l1 54m-1 -50c-3,0 -5,-2 -5,-5 0,-2 2,-5 5,-5 2,0 4,3 4,5 0,3 -2,5 -4,5zm-2 -109l1 54m0 186c-56,0 -102,-48 -102,-106 0,-59 46,-106 102,-106 57,0 103,47 103,106 0,58 -46,106 -103,106z"/>
  <circle class="fil0 str0" cx="151" cy="2189" r="109"/>
  <circle class="fil0 str0" cx="477" cy="2225" r="10"/>
  <circle class="fil0 str0" cx="700" cy="2224" r="10"/>
  <circle class="fil0 str0" cx="924" cy="2222" r="10"/>
  <circle class="fil0 str0" cx="1148" cy="2221" r="10"/>
  <circle class="fil0 str0" cx="1353" cy="2219" r="35"/>
  <circle class="fil0 str0" cx="1578" cy="2218" r="35"/>
  <path class="fil0 str0" d="M1519 2219l117 -1"/>
  <circle class="fil0 str0" cx="1801" cy="2215" r="20"/>
  <circle class="fil0 str0" cx="2024" cy="2212" r="20"/>
  <circle class="fil0 str0" cx="2246" cy="2210" r="9"/>
  <path class="fil0 str0" d="M2860 1786l77 0m-85 -1171l78 -1"/>
  <path class="fil0 str1" d="M2030 656c-6,8 -4,12 6,11 5,2 10,1 15,-1 7,2 11,-1 8,-10"/>
  <path class="fil0 str0" d="M2483 810c2,-11 4,-22 3,-34m66 -63c2,5 -4,12 -10,19 7,-2 14,-6 19,-14m2 18c-3,4 -6,5 -9,5m-59 49c4,6 2,13 7,20m-3 26c-15,0 -43,4 -46,-3m57 7c6,4 13,-8 19,-5m19 -2c34,2 52,-8 62,-12m-97 4c8,11 16,-27 22,-35m118 394c7,-16 6,-32 11,-49 15,-45 16,-90 5,-135 -11,-49 3,-102 -22,-146 -10,-21 -45,-39 -83,-58 -12,-8 -14,-28 -13,-55m75 346c-6,-30 -28,-44 -28,-62 -5,-28 32,-35 3,-131m23 115c2,26 4,53 2,79 -6,26 -2,56 -5,85 -9,14 -14,30 -15,48 -4,15 -5,29 -2,40 11,1 15,-22 20,-47 -1,8 -1,16 -2,23 5,13 7,25 0,37 -4,19 1,20 7,17 2,9 5,7 10,2 3,-1 7,-2 12,-12 2,-1 4,-3 6,-8 7,-9 7,-19 5,-29 0,-22 -3,-43 -11,-65m-39 -207c2,8 13,38 23,56m-97 -72c43,49 97,-4 62,-48m-17 45c6,-2 7,-6 6,-11 -4,3 -7,9 -6,11zm-144 3c6,0 8,-3 6,-9m48 12c-40,40 -90,7 -60,-49 1,-5 2,-11 0,-16m7 79c-1,25 -10,53 -13,78m58 -250c-11,14 -23,25 -38,30 -30,8 -49,28 -51,64 4,55 0,93 -10,116 -11,24 -14,48 -12,72 0,49 10,101 -10,144 -3,6 -3,11 1,16 8,12 12,26 23,37 5,4 9,9 14,13m31 -185c3,8 7,15 12,21m128 -92c0,-10 3,-18 9,-22m-89 78c0,4 5,5 7,3 1,-4 -4,-5 -7,-3zm78 44c3,-6 5,-11 6,-17m-28 64l2 -1m-10 9c-15,11 -22,24 -22,40 -14,-12 -28,-25 -38,-45 -9,-14 -20,-26 -31,-37m-74 79c5,10 5,21 10,32 3,4 6,5 10,9m50 -294c8,40 -8,66 -29,89 -10,18 -15,39 -15,63 3,30 -11,60 -12,90 5,72 31,134 58,193m14 43c-16,-11 -24,-33 -25,-63m18 69c-5,-8 -8,-15 -8,-24m59 24c0,-15 2,-25 7,-33m-46 36c10,1 13,-6 11,-16 -1,-4 -1,-8 0,-12m-33 -4c-24,41 41,212 31,244m44 -442c3,59 -8,80 -5,110 0,14 10,44 3,67 -12,20 6,28 8,75 -12,58 -1,96 -12,199m-2 -50c20,34 25,54 14,60 -9,5 -19,10 -29,15m-21 -46c-6,5 -10,22 -18,28 -9,9 -27,18 -30,27 -5,9 5,3 10,0 -24,26 -6,26 4,4 -18,20 -24,47 8,6 -29,31 -19,36 7,6 -3,5 -15,18 -18,23 5,8 16,0 27,-8 10,1 18,-9 25,-26 3,-12 8,-21 14,-28m257 16c11,9 18,16 24,25 5,7 5,16 -8,0 16,20 13,26 -4,9 21,19 18,31 -5,5 27,25 24,33 -7,9 9,7 18,14 22,18 -4,9 -12,9 -21,6 -8,-4 -14,-15 -23,-15 -14,-4 -20,-41 -29,-53m-18 -30c-7,35 -7,35 23,45m-67 -258c-9,-8 -13,-16 -13,-26m-19 31c-20,41 40,115 52,144 12,26 22,56 35,84m-80 -214c-9,-23 -45,-55 -61,-151 -3,-10 -34,-69 -42,-104m160 246c5,-39 -11,-64 -14,-118 -4,-26 3,-63 -5,-95m22 196c37,53 32,161 43,187 3,24 31,49 40,74m-98 -252c2,-2 4,-5 4,-9m-20 -225c-6,5 -7,11 -4,20 -1,10 -5,20 -10,30m14 -12l4 -34m-29 48c6,-13 13,-28 13,-38 -2,-6 -1,-12 1,-19m-175 -560c20,-13 29,-35 29,-46 -15,5 -27,14 -41,37 -10,9 -1,22 -9,46 -11,23 29,58 5,116m161 -6c-3,-18 -10,-40 -8,-58 2,-43 -4,-83 -28,-112 -15,-20 -29,-40 -45,-35 -27,2 -37,15 -40,33 2,19 13,24 29,26 15,6 17,15 20,24 8,11 17,12 24,20 2,24 -2,54 5,77"/>
  <path class="fil0 str0" d="M1580 1944l-47 23m32 -49l-34 50 63 2m1 -60l15 -9 20 34 -15 10 -20 -35zm-34 0c32,2 55,35 40,67l-40 -67z"/>
  <path class="fil0 str0" d="M943 2241c89,59 93,46 362,46 169,1 246,-110 264,-265"/>
  <path class="fil0 str0" d="M1542 2042l30 -22 11 37"/>
  <path class="fil0 str1" d="M683 237l156 -2"/>
  <path class="fil0 str1" d="M762 261l0 -16"/>
  <path class="fil0 str1" d="M2467 677c-4,8 -4,16 -3,24 -3,4 -1,9 0,13 -3,16 2,27 8,39 5,10 10,18 16,25 41,-1 58,-18 61,-47"/>
  <path class="fil0 str1" d="M2499 704c7,-3 15,-4 23,-3"/>
  <path class="fil0 str1" d="M2480 705c-5,-4 -10,-4 -14,-3"/>
  <path class="fil0 str1" d="M2505 717c1,-7 10,-8 20,-5"/>
  <path class="fil0 str1" d="M2467 711c6,-2 12,0 17,5"/>
  <path class="fil0 str1" d="M2506 727c1,8 -2,11 -9,8 -7,4 -13,5 -17,0"/>
  <path class="fil0 str1" d="M2488 727c0,-6 -1,-12 -2,-17"/>
  <path class="fil0 str1" d="M2490 760c4,2 8,2 12,0"/>
  <path class="fil0 str1" d="M2512 752c-2,-2 -4,-3 -9,-2 -5,-2 -9,-3 -13,-1 -5,-1 -7,1 -10,3 9,3 21,0 32,0z"/>
  <path class="fil0 str1" d="M2507 716c6,1 11,-1 14,-4"/>
  <path class="fil0 str0" d="M2469 712c3,4 8,5 12,3"/>
  <path class="fil0 str0" d="M2057 1203c-1,17 10,37 15,56 6,39 5,80 12,119 0,21 25,56 33,85"/>
  <path class="fil0 str1" d="M845 1126l454 -596m-467 613l-29 38m473 -634l11 9m16 -42l11 8m-5 -16l11 8m-6 -15l11 8m-6 -15l11 8m16 -43l11 8m7 -32l11 8m-6 -15l11 8m-6 -15l11 8m-5 -16l11 9m-6 -16l12 8m31 -64l11 9m-5 -16l11 8m-6 -15l11 8m7 -32l11 8m31 -64l11 8m-6 -15l11 8m-5 -15l11 8m4 -17l8 -11m-18 12l11 9m-34 34l8 -11m-21 28l8 -11m-20 27l8 -11m-26 35l8 -11m-37 48l9 -11m-21 28l8 -11m-21 27l9 -11m-48 63l9 -11m-25 33l8 -11m-20 26l9 -11"/>
  <path class="fil0 str1" d="M761 1154l42 28m-55 -37l-59 -42m0 9l8 -11m-29 -2l8 -12m-14 7l7 -11m-14 7l8 -12m-15 7l8 -11m-60 -27l7 -12m-14 7l8 -11m-14 7l7 -12m-14 7l8 -11m-76 -36l8 -11m-15 7l8 -12m-14 7l8 -11m-15 7l8 -12m74 68l8 -12m-15 7l8 -11m-89 -45l7 -11m-101 -53l8 -11m-14 7l7 -12m22 31l8 -12m-39 -18l-11 -7m41 28l-12 -8m33 23l-11 -8m28 19l-12 -8m28 19l-11 -7m27 18l-12 -7m61 41l-12 -7m26 18l-11 -8m28 19l-11 -7m68 47l-11 -8m26 18l-12 -8m27 18l-11 -7"/>
  <path class="fil0 str1" d="M799 1234l4 -52 28 46m10 16l565 905m-275 -399l11 -8m4 20l-7 -12m17 28l-7 -12m17 28l-7 -12m17 28l-7 -12m17 28l-7 -12m3 19l12 -7m-8 14l12 -8m4 19l-8 -12m8 27l12 -8m13 34l-7 -12m-11 -4l12 -7m19 43l-8 -12m5 22l12 -7m5 33l11 -8m-7 15l12 -7m4 19l-7 -12m26 56l11 -8m-49 -67l-8 -12m38 61l-7 -12m18 29l-7 -11m20 32l-7 -12m17 27l-7 -11m4 19l12 -7m-8 15l12 -8m-7 15l12 -7m-8 15l12 -7m5 20l-7 -12m17 27l-7 -11m17 27l-7 -12m31 35l11 -7"/>
  <path class="fil0 str1" d="M753 1185l50 -1m-222 20l0 -14m158 -3l-189 12"/>
  <path class="fil0 str1" d="M913 2172l12 0m7 5l4 0m-2 -11l0 11m-2 -11l4 0m-32 12l4 0m-2 -12l0 11m-2 -11l4 0m-13 12l4 0m-2 -12l0 11m-2 -11l4 0m43 5l12 0"/>
  <path class="fil0 str1" d="M680 2275l12 0m-22 5l4 0m-2 -11l0 11m-2 -11l4 0m26 5l13 0m5 6l4 0m-2 -12l0 12m-2 -12l4 0m6 12l4 0m-2 -12l0 12m-2 -12l4 0"/>
  <path class="fil0 str1" d="M462 2175l12 0m-21 6l4 0m-2 -12l0 11m-2 -11l4 0m33 5l12 0m-22 6l4 0m-2 -11l0 11m-2 -11l4 0"/>
  <path class="fil0 str1" d="M1122 2271l13 0m8 0l12 0m6 5l4 0m-2 -11l0 11m-2 -11l4 0m6 11l4 0m-2 -11l0 11m-2 -11l4 0m5 11l4 0m-2 -11l0 11m-2 -11l4 0m-71 12l4 0m-2 -11l0 11m-2 -11l4 0"/>
  <path class="fil0 str1" d="M1391 2173l4 0m-2 -11l0 11m-2 -11l4 0m-13 11l4 0m-2 -11l0 11m-2 -11l4 0m-22 6l12 0m-32 0l12 0m-32 0l12 0m-32 0l12 0m-22 7l4 0m-2 -12l0 11m-2 -11l4 0m104 4l4 0"/>
  <path class="fil0 str1" d="M1537 2277l4 0m-2 -12l0 11m-2 -11l4 0m34 5l13 0m-41 7l4 0m-2 -12l0 11m-2 -11l4 0m6 11l4 0m-2 -11l0 11m-3 -11l4 0m6 11l4 0m-2 -11l0 11m-2 -11l4 0m25 11l4 0m-2 -11l0 11m-2 -12l4 0m6 12l4 0m-2 -12l0 12m-3 -12l4 0m6 12l4 0m-2 -12l0 12m-2 -12l4 0"/>
  <path class="fil0 str1" d="M1756 2169l4 0m-2 -11l0 11m-2 -12l4 0m34 5l12 0m-40 7l4 0m-2 -11l0 11m-3 -12l4 0m6 12l4 0m-2 -12l0 12m-2 -12l4 0m6 12l4 0m-2 -12l0 12m-2 -12l4 0m24 12l4 0m-2 -11l0 11m-2 -12l4 0m6 12l4 0m-2 -11l0 11m-2 -12l4 0m6 12l4 0m-2 -12l0 12m-2 -12l4 0m5 12l4 0m-2 -12l0 12m-2 -12l4 0"/>
  <path class="fil0 str1" d="M1971 2265l12 0m-31 7l4 0m-2 -12l0 12m-2 -12l4 0m6 12l4 0m-2 -12l0 12m-2 -12l4 0m25 5l12 0m8 0l12 0m7 0l13 0m25 0l12 0m-31 6l4 0m-2 -11l0 11m-2 -12l4 0m6 12l4 0m-2 -11l0 11m-2 -12l4 0m25 6l12 0"/>
  <path class="fil0 str1" d="M2191 2165l4 0m-2 -11l0 11m-2 -11l4 0m6 11l4 0m-2 -11l0 11m-2 -11l4 0m6 11l4 0m-2 -11l0 11m-2 -11l4 0m6 11l4 0m-2 -11l0 11m-2 -11l4 0m5 11l4 0m-2 -11l0 11m-2 -11l4 0m6 11l4 0m-2 -11l0 11m-2 -11l4 0m6 11l4 0m-2 -11l0 11m-3 -12l4 0m6 12l4 0m-2 -11l0 11m-2 -12l4 0m6 6l12 0m8 0l12 0"/>
  <path class="fil0 str0" d="M2175 1140c-6,-3 -2,-72 -20,-87 8,-11 7,-31 2,-54 -10,-17 -3,-41 7,-66m-23 -166c-1,5 2,9 9,10m-159 -156c-6,-22 3,-32 12,-12m85 51c7,-6 13,-14 14,-19m-5 36c-16,19 -37,40 -51,37 -24,2 -32,-23 -43,-48 2,-9 -2,-17 -5,-25 2,-9 2,-20 -4,-19m-167 14l7 1m132 768c-15,34 0,113 25,205 6,27 0,48 -12,66m47 13c-16,6 -27,19 -34,39 -5,16 -17,19 -32,16 -11,11 -22,15 -33,3 -4,-2 -7,-6 -8,-11 0,-4 0,-7 1,-10 -1,-6 0,-12 4,-18 5,-10 12,-14 21,-14 8,-1 28,-24 44,-42m-49 59c-7,4 -14,9 -20,15m17 -21c-4,1 -8,3 -11,5m22 8c-10,4 -17,14 -27,20m37 -15c-7,9 -23,12 -32,23 6,-4 17,-5 19,-9m87 -68c4,-8 0,-42 4,-47m13 -140c0,22 -3,44 -10,67m-1 -12c0,42 5,83 13,125 10,35 -20,35 -44,41m127 17c-31,-21 -23,-20 -16,-47m1 -100c4,31 -4,65 -2,98 16,14 21,35 16,63 -3,12 2,20 14,24 5,16 15,21 30,14 4,1 8,-1 11,-6 3,0 5,-3 7,-7 3,-2 6,-4 6,-11 -1,-13 -7,-24 -13,-35 -11,-25 -20,-47 -33,-50 6,-2 11,-6 10,-18 -3,-16 -2,-32 4,-48 17,-66 26,-132 -2,-198m-72 16c-10,38 -5,76 13,114m37 -100c3,-6 0,-13 5,-14m15 -12c4,-24 4,-46 2,-67m-8 20c1,-12 6,-23 14,-35 8,-22 12,-43 11,-64m-35 136c-1,-8 1,-15 3,-22m-48 7c-2,8 1,19 9,27 -3,13 0,25 11,24m-84 -44c18,42 17,78 3,111m-10 -72c-3,-15 -4,-31 6,-45 -1,-8 1,-16 5,-23 0,-30 1,-60 -3,-97 5,-19 7,-37 6,-56m-75 219c-13,-29 -22,-57 -23,-83m39 52c-1,-10 -5,-20 -13,-30 8,10 16,15 24,16m-59 -332c-11,10 -10,24 -7,40 3,16 -10,33 -10,49 -2,47 11,93 12,140 -2,40 11,65 30,83m123 -226c26,-24 24,-55 40,-72m-49 81l3 -3m-113 -68c18,17 18,61 43,72m44 4c-8,12 -5,22 -3,35 3,17 -17,18 -19,4 -4,-12 6,-24 1,-34m35 -7c-6,6 -9,14 -5,26 4,18 1,33 -21,33 -16,1 -21,-6 -24,-18 -3,-16 6,-14 -1,-38m198 5c1,16 2,32 -1,48 1,10 -3,18 -8,26 -6,18 -17,27 -30,36 -4,1 -8,0 -11,-1 -3,0 -6,0 -8,-1 -7,-1 -7,-5 -5,-10 15,-26 19,-45 16,-60m36 21c-8,12 -11,24 -10,35m-25 15c17,-15 20,-42 27,-51m-7 -7c-10,12 -10,37 -30,56m24 -126c-9,9 -25,20 -30,38 -2,10 -22,21 -21,27 3,21 29,-10 45,-12m6 -203c-7,26 -5,55 0,85 4,10 0,43 -1,67m12 -122c1,-13 -4,-24 -17,-34 -11,-15 -8,-32 -15,-45 -5,-14 0,-44 -4,-65m63 -13c17,36 7,72 10,86 1,21 19,72 7,113 -11,30 -11,67 -21,101m-288 -287c1,29 6,57 15,86 6,20 2,38 -3,55 -12,17 -7,30 4,41m88 -16c4,1 6,0 7,-3m16 -118c18,3 30,71 49,75m-118 0c35,-9 15,-78 59,-76m-30 -28c-50,1 -88,-4 -84,-50 0,-11 -1,-17 -4,-26m123 62c-6,8 -15,13 -28,13m146 -63c-13,47 -8,63 -64,62 -19,1 -42,-2 -47,-10m-14 -113c5,5 10,3 14,-4m-18 -17l11 7 19 -26m-113 34c14,-11 28,-20 42,-27 9,-5 10,-20 10,-39m16 68c-15,-1 -29,1 -42,4 -22,2 -27,-16 -63,1 -24,14 -33,27 -34,40m10 2c-14,-3 -32,10 -43,21m7 63c2,-41 -25,-83 -19,-124 0,-25 3,-48 16,-64 8,-8 13,-17 15,-25 6,-8 11,-14 16,-18 8,-15 -11,-13 -28,0 -3,6 -10,12 -19,18 -22,8 -24,20 -22,33 -1,-4 -3,-7 -4,-10m-21 23c-9,55 -19,136 -6,170m109 -4c-6,8 -22,15 -31,25m48 -104c26,15 25,42 8,69 -9,20 -33,27 -55,35 -22,12 -37,14 -51,12 -30,-2 -28,-12 -25,-49m117 -20l12 -10m43 22c5,7 15,2 6,-2m-10 -86c4,0 8,-3 10,-7m87 44c2,-2 3,-5 2,-10m-2 31c1,-1 3,-4 3,-7m71 35c-8,2 0,8 5,4m-63 -114c19,0 39,9 58,2m85 121c3,-21 9,-45 4,-64 -10,-40 -37,-67 -75,-59m-32 -185c17,23 17,39 5,51 2,18 -4,25 -12,30 0,5 -3,11 -5,16 -9,14 -4,38 -2,61m-12 -165c3,-28 -17,-48 -51,-32 -6,10 -12,9 -19,10 -10,-1 -13,6 -16,12 -2,9 -11,11 -17,15 -4,6 -5,12 -1,18 -9,12 -11,24 0,35 -2,9 2,12 6,13 -2,6 -1,11 4,16 1,12 5,16 10,19m-204 62c-12,-25 -23,-50 -18,-75 -7,-25 -6,-45 3,-50 7,1 4,26 10,46 0,-22 -1,-54 15,-62 8,3 -5,29 0,53 5,-26 9,-56 17,-64 11,2 -4,38 4,60 4,-17 0,-46 11,-52 11,12 3,53 10,79m-34 -28c-4,2 -7,1 -8,5m-19 10l9 -4m354 104c-13,-17 -45,-30 -55,-47m15 -105c3,14 -1,28 -12,42 1,-9 3,-19 -10,-29 -15,-7 -18,-21 -10,-43 -16,19 -30,23 -43,16m49 -42c16,-4 23,12 25,37m-62 -1c-16,-10 -33,28 -49,25"/>
  <path class="fil0 str0" d="M2106 1527c-2,27 3,56 12,85"/>
  <path class="fil0 str1" d="M2896 1228l0 1m0 -12l0 -7m0 -15l0 -16m-1 -15l0 -19m-8 106l19 0"/>
  <path class="fil0 str1" d="M2035 626c-8,-8 -17,-1 -25,-5"/>
  <path class="fil0 str1" d="M2083 625c-7,-5 -17,-5 -28,-2"/>
  <path class="fil0 str1" d="M2038 692c4,2 8,3 13,1"/>
  <path class="fil0 str1" d="M2038 658c2,-10 2,-19 1,-28"/>
  <path class="fil0 str1" d="M2058 637c2,-11 17,-7 25,-5"/>
  <path class="fil0 str1" d="M2038 637c-5,-6 -9,-7 -14,-6 -7,-1 -11,1 -14,1"/>
  <path class="fil0 str0" d="M2034 634c-4,4 -16,4 -18,0"/>
  <path class="fil0 str0" d="M2077 632c-3,3 -10,5 -12,1"/>
  <path class="fil0 str1" d="M2063 681c-6,-1 -13,-5 -19,0 -6,-5 -13,-1 -20,2 13,0 26,0 39,-2z"/>
  <path class="fil0 str1" d="M2200 1751c-2,-5 -10,-11 -11,-17"/>
  <path class="fil0 str1" d="M2180 1737c-1,5 15,15 14,24"/>
  <path class="fil0 str1" d="M2172 1742c9,7 12,19 19,25"/>
  <path class="fil0 str1" d="M2165 1750c6,7 13,12 14,20"/>
  <path class="fil0 str1" d="M2176 1768c-15,1 -12,-5 -8,-12"/>
  <path class="fil0 str1" d="M799 1234l4 -52m-6 70l-24 259m-8 27l13 1m-14 8l14 1m-15 8l14 1m-9 21l1 -14m-3 35l1 -14m-3 35l1 -14m-9 20l14 1m-15 8l14 1m-8 18l1 -14m-9 22l14 1m-15 8l14 1m-17 27l14 1m-15 8l14 1m-18 47l14 1m-17 28l14 2m-17 28l14 1m-19 48l14 1m-14 7l13 1m-3 -37l1 -14m-3 35l1 -14m4 -35l1 -14m2 -16l1 -14m1 -14l1 -14m1 -7l1 -13m3 -23l1 -14m7 -149l14 1m-11 -41l14 1m-50 391l13 1"/>
  <path class="fil0 str1" d="M851 1226l-10 9m20 11l-10 -10m19 11l-10 10m16 -4l-10 10m19 11l-10 -10m24 25l-10 -9m17 7l-10 10m20 11l-10 -10m22 23l-10 -10m20 12l-10 10m15 -4l-10 10m19 11l-9 -10m22 23l-9 -9m22 24l-10 -10m17 8l-10 9m20 13l-10 -10m20 11l-10 10m20 11l-10 -10m17 9l-10 9m16 -3l-10 10m16 -3l-10 10m18 9l-10 -9m20 10l-10 9m16 -3l-10 10m18 9l-10 -10m19 10l-10 10m16 -3l-10 10m16 -3l-10 10m16 -4l-10 10m-250 -302l-10 10m10 0l-10 -10m-3 -6l-15 -16"/>
  <path class="fil0 str1" d="M1784 1478l13 4m-381 -122l-4 13m-548 -171l526 157m-542 -161l-43 -16m520 151l-4 13m157 32l-4 13m12 -11l-4 13m64 5l-4 13m11 -10l-4 13m11 -11l-4 13m12 -11l-4 14m11 -11l-4 13m50 0l-5 14m62 3l-4 14m12 -11l-4 13m27 -6l-4 13m13 -10l-5 13m13 -11l-4 14m31 -6l-5 13m31 -5l-4 13m-356 -114l13 4m4 1l14 4m5 2l13 4m20 5l13 4m5 2l13 4m4 1l13 5m44 12l13 4m4 1l13 4m12 4l13 4m6 1l13 4m4 2l14 4m16 5l14 4m28 8l14 4m14 5l13 4"/>
  <path class="fil0 str1" d="M1368 1038l13 -3m-21 -2l3 14m-11 -11l3 13m-22 -1l13 -4m-23 -1l3 13m-22 -1l14 -3m-23 -3l4 14m-12 -11l3 13m-11 -11l3 14m-22 -2l13 -3m-34 9l14 -4m-35 9l14 -4m-22 -1l4 14m-23 -2l14 -3m-21 -2l3 14m-23 -2l14 -3m-22 -2l4 14m-22 -1l13 -3m-33 8l14 -3m-22 -3l3 13m-21 -1l14 -3m-22 -3l3 14m-11 -11l3 13m-21 -1l13 -3m-32 8l13 -3m-32 8l13 -3m-32 7l13 -3m-32 8l14 -3m-21 -2l3 13m-95 11l3 13m-19 -2l91 -24m-155 38l47 -10m539 -139l13 -3"/>
  <path class="fil0 str1" d="M849 1124l10 10m-1 -9l9 -10m4 -5l10 -10m-1 -10l10 10m-5 -16l10 10m0 -11l10 -10m4 -5l9 -10m0 -11l10 10m0 -11l10 -10m-1 -11l10 10m-4 -16l10 10m0 -12l10 -10m-1 -9l10 9m0 -11l10 -10m-1 -10l10 9m-4 -16l10 9m-4 -16l10 10m0 -11l9 -10m0 -11l10 10m0 -10l10 -10m4 -6l10 -10m-1 -10l10 10m0 -12l10 -10m-1 -10l10 9m-4 -16l10 10m-4 -17l10 10m0 -12l9 -9m5 -6l10 -10m4 -5l9 -10m-319 358l17 -14"/>
  <path class="fil0 str1" d="M761 941l14 -2m-18 -28l14 -2m-16 -7l14 -2m-18 -26l14 -3m-15 -6l13 -2m-20 -47l14 -2m-18 -27l13 -2m-15 -6l14 -3m-18 -26l13 -2m-20 -47l14 -2m-26 -81l14 -2m-18 -24l14 -2m-15 -6l13 -3m-24 -69l13 -3m-3 21l-2 -13m5 34l-2 -13m6 35l-2 -13m7 51l-2 -14m6 41l-2 -14m5 34l-2 -14m5 32l-2 -13m5 32l-2 -14m5 40l-2 -14m5 34l-2 -13m6 42l-2 -13m8 50l-2 -13m6 42l-2 -14m5 34l-2 -14m7 51l-2 -13m8 52l-2 -13m4 69l13 -2m12 131l-22 -157m31 221l-7 -48"/>
  <path class="fil0 str1" d="M445 1204l-1 -14m-66 19l-1 -14m-7 15l-1 -14m-5 6l-14 1m-100 15l-1 -13m21 4l-13 1m-14 1l-14 1m-25 9l-1 -14m-7 15l-1 -14m-7 15l-1 -14m-66 18l0 -14m101 -1l-14 1m-25 3l-14 0m-6 1l-14 1m-5 1l-14 0m-15 2l-14 0m-6 1l-14 0m262 -11l-1 -14m-27 16l0 -13m24 4l-14 1m-13 1l-14 1m-6 0l-14 1m218 -8l0 -14m47 11l-1 -14m-53 17l-1 -13m-7 14l-1 -14m-7 15l-1 -14m-72 12l-14 1m33 -2l-14 0m34 -2l-14 1m41 -3l-14 1m65 -4l-14 0m33 -1l-14 0"/>
  <path class="fil0 str1" d="M29 1261l-14 1m22 6l-2 -14m18 5l-13 1m34 -3l-13 1m31 -4l-14 2m33 -3l-14 1m32 -3l-14 1m24 4l-2 -13m21 5l-14 1m23 5l-2 -14m23 5l-14 1m21 5l-2 -13m19 5l-14 1m34 -4l-13 2m31 -4l-14 1m34 -3l-13 2m33 -4l-14 2m22 5l-2 -14m9 13l-1 -14m9 13l-1 -14m21 5l-14 2m34 -4l-14 1m22 6l-2 -14m10 13l-2 -14m19 5l-14 1m23 5l-2 -13m53 8l-2 -14m359 -28l-397 39"/>
  <path class="fil0 str1" d="M582 1265l-6 -13m-102 48l-6 -13m-2 16l-6 -12m-1 15l-6 -12m-2 16l-6 -13m-84 40l-6 -13m-2 16l-6 -12m155 -38l-7 -12m-107 50l-6 -13m145 -33l-6 -13m34 3l-6 -12m23 -1l-13 6m-14 2l-12 6m-15 4l-13 6m-14 2l-13 6m-38 11l-13 6m-5 1l-13 6m-4 -1l-12 6m-14 3l-13 6m319 -100l-6 -12m-1 16l-6 -12m-39 26l-6 -12m-2 16l-6 -13m-29 23l-6 -13m31 6l-6 -13m-6 7l-13 6m58 -21l-12 6m30 -12l-12 6m47 -17l-13 6m24 -1l-6 -13m30 -4l-12 6m32 -11l47 -17m-28 17l-6 -12"/>
  <path class="fil0 str1" d="M673 1353l-10 -10m5 16l-10 -9m-9 31l-10 -10m5 17l-10 -10m-22 48l-10 -9m-9 31l-11 -9m-42 75l-10 -9m4 16l-10 -10m23 -16l-10 10m33 -38l-10 10m-2 4l-10 10m34 -40l-9 10m29 -33l-10 10m28 -32l-9 10m23 -26l-10 10m34 -40l-9 10m85 -91l-10 -10m5 17l-10 -9m-8 31l-10 -10m4 16l-10 -10m-13 27l-10 10m23 -26l-9 10m33 -38l-10 10m34 -39l-9 10m18 -11l-10 -9m19 -12l-9 10m20 -12l-10 -9m18 -11l-9 10m23 -27l9 -15m-14 30l-10 -10"/>
  <path class="fil0 str1" d="M804 1181l17 -42m0 -20l13 5m-8 1l6 -13m-2 -14l13 5m-4 -10l5 -13m-4 -9l13 5m-10 -14l13 6m-10 -14l13 5m-10 -13l13 5m5 -50l13 5m-22 36l5 -13m2 -5l6 -13m-1 -19l13 6m-10 -14l13 5m-10 -13l13 5m6 -54l13 6m-22 39l5 -13m2 -8l6 -13m-1 -19l13 5m-10 -13l13 5m5 -50l12 5m-10 -13l13 5m25 -105l13 5m-10 -13l13 5m-3 -31l13 5m-75 178l5 -13m2 -6l5 -13m9 -21l5 -13m1 -4l5 -13m1 -5l6 -12m3 -9l5 -13m2 -6l5 -13m8 -21l5 -13"/>
 </g>
</svg>
